<svg width="32" height="32" viewBox="0 0 32 32" fill="none" xmlns="http://www.w3.org/2000/svg">
  <!-- Background circle -->
  <circle cx="16" cy="16" r="16" fill="#1d1d1f"/>
  
  <!-- Large central star -->
  <g transform="translate(16, 16)">
    <path d="M0 -6L1.5 -1.5L6 0L1.5 1.5L0 6L-1.5 1.5L-6 0L-1.5 -1.5Z" fill="#ffffff"/>
  </g>
  
  <!-- Small top-left star -->
  <g transform="translate(8, 8)">
    <path d="M0 -3L0.75 -0.75L3 0L0.75 0.75L0 3L-0.75 0.75L-3 0L-0.75 -0.75Z" fill="#ffffff" opacity="0.8"/>
  </g>
  
  <!-- Small top-right star -->
  <g transform="translate(24, 8)">
    <path d="M0 -2L0.5 -0.5L2 0L0.5 0.5L0 2L-0.5 0.5L-2 0L-0.5 -0.5Z" fill="#ffffff" opacity="0.6"/>
  </g>
  
  <!-- Small bottom-right star -->
  <g transform="translate(24, 24)">
    <path d="M0 -3L0.75 -0.75L3 0L0.75 0.75L0 3L-0.75 0.75L-3 0L-0.75 -0.75Z" fill="#ffffff" opacity="0.7"/>
  </g>
  
  <!-- Tiny accent star -->
  <g transform="translate(10, 22)">
    <path d="M0 -1.5L0.375 -0.375L1.5 0L0.375 0.375L0 1.5L-0.375 0.375L-1.5 0L-0.375 -0.375Z" fill="#ffffff" opacity="0.5"/>
  </g>
</svg> 